<svg version="1.1" id="Capa_1" xmlns="http://www.w3.org/2000/svg" xmlns:xlink="http://www.w3.org/1999/xlink" x="0px" y="0px"
	 viewBox="0 0 511 511" style="enable-background:new 0 0 511 511;" xml:space="preserve">
<style type="text/css">
	.st0{fill:#00aae4;}
</style>
<g>
	<path class="st0" d="M503.5,160H439v-0.5c0-13-10.5-23.5-23.5-23.5S392,146.5,392,159.5v0.5h-64.5c-4.1,0-7.5,3.4-7.5,7.5
		s3.4,7.5,7.5,7.5H384v8.5c0,0.2,0,0.3,0,0.5h-48.4c0,0,0,0,0,0H175.4c0,0,0,0,0,0H127c0-0.2,0-0.3,0-0.5V175h56.5
		c4.1,0,7.5-3.4,7.5-7.5s-3.4-7.5-7.5-7.5H119v-0.5c0-13-10.5-23.5-23.5-23.5S72,146.5,72,159.5v0.5H7.5c-4.1,0-7.5,3.4-7.5,7.5
		s3.4,7.5,7.5,7.5H64v8.5c0,17.4,14.1,31.5,31.5,31.5c11.7,0,22-6.5,27.4-16h47.2l7,21c5.4,16.2,20.4,27,37.5,27H248v17h-40.5
		c-17.4,0-31.5,14.1-31.5,31.5v48c0,17.4,14.1,31.5,31.5,31.5h96c17.4,0,31.5-14.1,31.5-31.5v-48c0-17.4-14.1-31.5-31.5-31.5H263
		v-17h33.4c17,0,32.1-10.9,37.5-27l7-21h47.2c5.4,9.5,15.7,16,27.4,16c17.4,0,31.5-14.1,31.5-31.5V175h56.5c4.1,0,7.5-3.4,7.5-7.5
		S507.6,160,503.5,160z M87,159.5c0-4.7,3.8-8.5,8.5-8.5s8.5,3.8,8.5,8.5v0.5H87V159.5z M95.5,200c-9.1,0-16.5-7.4-16.5-16.5V175h33
		v8.5C112,192.6,104.6,200,95.5,200z M320,295.5v48c0,9.1-7.4,16.5-16.5,16.5h-96c-9.1,0-16.5-7.4-16.5-16.5v-48
		c0-9.1,7.4-16.5,16.5-16.5h96C312.6,279,320,286.4,320,295.5z M319.7,215.2c-3.3,10-12.7,16.8-23.2,16.8h-81.9
		c-10.6,0-19.9-6.7-23.2-16.8l-5.4-16.2h139.2L319.7,215.2z M407,159.5c0-4.7,3.8-8.5,8.5-8.5s8.5,3.8,8.5,8.5v0.5h-17V159.5z
		 M432,183.5c0,9.1-7.4,16.5-16.5,16.5s-16.5-7.4-16.5-16.5V175h33V183.5z"/>
	<path class="st0" d="M231.5,288c-17.4,0-31.5,14.1-31.5,31.5s14.1,31.5,31.5,31.5s31.5-14.1,31.5-31.5S248.9,288,231.5,288z
		 M231.5,336c-9.1,0-16.5-7.4-16.5-16.5s7.4-16.5,16.5-16.5s16.5,7.4,16.5,16.5S240.6,336,231.5,336z"/>
	<path class="st0" d="M287.5,303h8c4.1,0,7.5-3.4,7.5-7.5s-3.4-7.5-7.5-7.5h-8c-4.1,0-7.5,3.4-7.5,7.5S283.4,303,287.5,303z"/>
	<path class="st0" d="M231.5,312c-2,0-3.9,0.8-5.3,2.2c-1.4,1.4-2.2,3.3-2.2,5.3s0.8,3.9,2.2,5.3c1.4,1.4,3.3,2.2,5.3,2.2
		s3.9-0.8,5.3-2.2c1.4-1.4,2.2-3.3,2.2-5.3s-0.8-3.9-2.2-5.3C235.4,312.8,233.5,312,231.5,312z"/>
</g>
</svg>
